<mxfile host="65bd71144e">
    <diagram id="_Ac1kshg5h3HpnMUC-l3" name="Страница 1">
        <mxGraphModel dx="1166" dy="854" grid="1" gridSize="10" guides="1" tooltips="1" connect="1" arrows="1" fold="1" page="1" pageScale="1" pageWidth="827" pageHeight="1169" math="0" shadow="0">
            <root>
                <mxCell id="0"/>
                <mxCell id="1" parent="0"/>
                <mxCell id="102" value="" style="endArrow=classic;startArrow=classic;html=1;fontFamily=Times New Roman;fontSize=10;exitX=0.5;exitY=0;exitDx=0;exitDy=0;entryX=0.5;entryY=1;entryDx=0;entryDy=0;" edge="1" parent="1" source="101" target="98">
                    <mxGeometry width="50" height="50" relative="1" as="geometry">
                        <mxPoint x="1185" y="317.5" as="sourcePoint"/>
                        <mxPoint x="1216" y="130" as="targetPoint"/>
                    </mxGeometry>
                </mxCell>
                <mxCell id="41" value="" style="ellipse;whiteSpace=wrap;html=1;aspect=fixed;" vertex="1" parent="1">
                    <mxGeometry x="340" y="60" width="50" height="50" as="geometry"/>
                </mxCell>
                <mxCell id="42" value="&lt;p style=&quot;background-color: rgb(30 , 30 , 30) ; line-height: 18px&quot;&gt;&lt;font face=&quot;Times New Roman&quot; style=&quot;font-size: 10px&quot;&gt;&lt;font color=&quot;#d4d4d4&quot;&gt;maxFromThreeCut(&lt;/font&gt;&lt;font color=&quot;#b5cea8&quot;&gt;22&lt;/font&gt;&lt;font color=&quot;#d4d4d4&quot;&gt;, &lt;/font&gt;&lt;span style=&quot;color: rgb(181 , 206 , 168)&quot;&gt;7&lt;/span&gt;&lt;font color=&quot;#d4d4d4&quot;&gt;, &lt;/font&gt;&lt;font color=&quot;#b5cea8&quot;&gt;11&lt;/font&gt;&lt;font color=&quot;#d4d4d4&quot;&gt;,&amp;nbsp;&lt;/font&gt;&lt;span style=&quot;color: rgb(156 , 220 , 254)&quot;&gt;R&lt;/span&gt;&lt;font color=&quot;#d4d4d4&quot;&gt;)&lt;/font&gt;&lt;/font&gt;&lt;/p&gt;" style="shape=partialRectangle;whiteSpace=wrap;html=1;bottom=1;right=1;left=1;top=0;fillColor=none;routingCenterX=-0.5;" vertex="1" parent="1">
                    <mxGeometry x="301" y="10" width="139" height="40" as="geometry"/>
                </mxCell>
                <mxCell id="44" value="" style="ellipse;whiteSpace=wrap;html=1;aspect=fixed;" vertex="1" parent="1">
                    <mxGeometry x="180" y="170" width="50" height="50" as="geometry"/>
                </mxCell>
                <mxCell id="46" value="" style="endArrow=classic;startArrow=classic;html=1;fontFamily=Times New Roman;fontSize=10;exitX=1;exitY=0;exitDx=0;exitDy=0;entryX=0;entryY=1;entryDx=0;entryDy=0;" edge="1" parent="1" source="44" target="41">
                    <mxGeometry width="50" height="50" relative="1" as="geometry">
                        <mxPoint x="360" y="210" as="sourcePoint"/>
                        <mxPoint x="410" y="160" as="targetPoint"/>
                    </mxGeometry>
                </mxCell>
                <mxCell id="47" value="&lt;p style=&quot;background-color: rgb(30 , 30 , 30) ; line-height: 18px&quot;&gt;&lt;font face=&quot;Times New Roman&quot; style=&quot;font-size: 12px&quot;&gt;22&amp;gt;=7, 22&amp;gt;=11, !&lt;/font&gt;&lt;/p&gt;" style="shape=partialRectangle;whiteSpace=wrap;html=1;bottom=1;right=1;left=1;top=0;fillColor=none;routingCenterX=-0.5;" vertex="1" parent="1">
                    <mxGeometry x="40" y="180" width="130" height="35" as="geometry"/>
                </mxCell>
                <mxCell id="52" value="" style="endArrow=classic;startArrow=classic;html=1;fontFamily=Times New Roman;fontSize=10;exitX=0.5;exitY=1;exitDx=0;exitDy=0;entryX=0.5;entryY=0;entryDx=0;entryDy=0;" edge="1" parent="1" source="44" target="53">
                    <mxGeometry width="50" height="50" relative="1" as="geometry">
                        <mxPoint x="252.67766952966372" y="207.32233047033628" as="sourcePoint"/>
                        <mxPoint x="205" y="290" as="targetPoint"/>
                    </mxGeometry>
                </mxCell>
                <mxCell id="53" value="" style="ellipse;whiteSpace=wrap;html=1;aspect=fixed;" vertex="1" parent="1">
                    <mxGeometry x="180" y="290" width="50" height="50" as="geometry"/>
                </mxCell>
                <mxCell id="57" value="" style="ellipse;whiteSpace=wrap;html=1;aspect=fixed;" vertex="1" parent="1">
                    <mxGeometry x="180" y="390" width="50" height="50" as="geometry"/>
                </mxCell>
                <mxCell id="58" value="" style="endArrow=classic;startArrow=classic;html=1;fontFamily=Times New Roman;fontSize=10;exitX=0.5;exitY=1;exitDx=0;exitDy=0;entryX=0.5;entryY=0;entryDx=0;entryDy=0;" edge="1" parent="1" source="57" target="59">
                    <mxGeometry width="50" height="50" relative="1" as="geometry">
                        <mxPoint x="252.67766952966372" y="427.3223304703363" as="sourcePoint"/>
                        <mxPoint x="205" y="510" as="targetPoint"/>
                    </mxGeometry>
                </mxCell>
                <mxCell id="59" value="" style="ellipse;whiteSpace=wrap;html=1;aspect=fixed;" vertex="1" parent="1">
                    <mxGeometry x="180" y="510" width="50" height="50" as="geometry"/>
                </mxCell>
                <mxCell id="61" value="" style="endArrow=classic;startArrow=classic;html=1;fontFamily=Times New Roman;fontSize=10;exitX=0.5;exitY=1;exitDx=0;exitDy=0;entryX=0.5;entryY=0;entryDx=0;entryDy=0;" edge="1" parent="1" source="53" target="57">
                    <mxGeometry width="50" height="50" relative="1" as="geometry">
                        <mxPoint x="215" y="230" as="sourcePoint"/>
                        <mxPoint x="215" y="300" as="targetPoint"/>
                    </mxGeometry>
                </mxCell>
                <mxCell id="62" value="&lt;p style=&quot;background-color: rgb(30 , 30 , 30) ; line-height: 18px&quot;&gt;&lt;font face=&quot;Times New Roman&quot; style=&quot;font-size: 12px&quot;&gt;22&amp;gt;=11, !&lt;/font&gt;&lt;/p&gt;" style="shape=partialRectangle;whiteSpace=wrap;html=1;bottom=1;right=1;left=1;top=0;fillColor=none;routingCenterX=-0.5;" vertex="1" parent="1">
                    <mxGeometry x="30" y="297.5" width="130" height="35" as="geometry"/>
                </mxCell>
                <mxCell id="63" value="&lt;p style=&quot;background-color: rgb(30 , 30 , 30) ; line-height: 18px&quot;&gt;&lt;font face=&quot;Times New Roman&quot; style=&quot;font-size: 12px&quot;&gt;!&lt;/font&gt;&lt;/p&gt;" style="shape=partialRectangle;whiteSpace=wrap;html=1;bottom=1;right=1;left=1;top=0;fillColor=none;routingCenterX=-0.5;" vertex="1" parent="1">
                    <mxGeometry x="30" y="397.5" width="130" height="35" as="geometry"/>
                </mxCell>
                <mxCell id="64" value="&lt;p style=&quot;background-color: rgb(30 , 30 , 30) ; line-height: 18px&quot;&gt;&lt;br&gt;&lt;/p&gt;" style="shape=partialRectangle;whiteSpace=wrap;html=1;bottom=1;right=1;left=1;top=0;fillColor=none;routingCenterX=-0.5;" vertex="1" parent="1">
                    <mxGeometry x="30" y="517.5" width="130" height="35" as="geometry"/>
                </mxCell>
                <mxCell id="66" value="{A=22, B=7, C=11, R}" style="text;html=1;align=center;verticalAlign=middle;resizable=0;points=[];autosize=1;strokeColor=none;fillColor=none;fontSize=10;fontFamily=Times New Roman;" vertex="1" parent="1">
                    <mxGeometry x="165" y="120" width="110" height="20" as="geometry"/>
                </mxCell>
                <mxCell id="67" value="&lt;p style=&quot;background-color: rgb(30 , 30 , 30) ; line-height: 18px&quot;&gt;&lt;font face=&quot;Times New Roman&quot; style=&quot;font-size: 10px&quot;&gt;&lt;font color=&quot;#d4d4d4&quot;&gt;maxFromThreeCut(&lt;/font&gt;&lt;font color=&quot;#b5cea8&quot;&gt;7&lt;/font&gt;&lt;font color=&quot;#d4d4d4&quot;&gt;, &lt;/font&gt;&lt;span style=&quot;color: rgb(181 , 206 , 168)&quot;&gt;22&lt;/span&gt;&lt;font color=&quot;#d4d4d4&quot;&gt;, &lt;/font&gt;&lt;font color=&quot;#b5cea8&quot;&gt;11&lt;/font&gt;&lt;font color=&quot;#d4d4d4&quot;&gt;,&amp;nbsp;&lt;/font&gt;&lt;span style=&quot;color: rgb(156 , 220 , 254)&quot;&gt;R&lt;/span&gt;&lt;font color=&quot;#d4d4d4&quot;&gt;)&lt;/font&gt;&lt;/font&gt;&lt;/p&gt;" style="shape=partialRectangle;whiteSpace=wrap;html=1;bottom=1;right=1;left=1;top=0;fillColor=none;routingCenterX=-0.5;" vertex="1" parent="1">
                    <mxGeometry x="670" y="10" width="139" height="40" as="geometry"/>
                </mxCell>
                <mxCell id="73" value="" style="ellipse;whiteSpace=wrap;html=1;aspect=fixed;" vertex="1" parent="1">
                    <mxGeometry x="700" y="60" width="50" height="50" as="geometry"/>
                </mxCell>
                <mxCell id="74" value="" style="ellipse;whiteSpace=wrap;html=1;aspect=fixed;" vertex="1" parent="1">
                    <mxGeometry x="590" y="150" width="50" height="50" as="geometry"/>
                </mxCell>
                <mxCell id="75" value="" style="endArrow=classic;startArrow=classic;html=1;fontFamily=Times New Roman;fontSize=10;exitX=1;exitY=0;exitDx=0;exitDy=0;entryX=0;entryY=1;entryDx=0;entryDy=0;" edge="1" parent="1" source="74" target="73">
                    <mxGeometry width="50" height="50" relative="1" as="geometry">
                        <mxPoint x="610" y="210" as="sourcePoint"/>
                        <mxPoint x="660" y="160" as="targetPoint"/>
                    </mxGeometry>
                </mxCell>
                <mxCell id="76" value="&lt;p style=&quot;background-color: rgb(30 , 30 , 30) ; line-height: 18px&quot;&gt;&lt;font face=&quot;Times New Roman&quot; style=&quot;font-size: 12px&quot;&gt;7&amp;gt;=22, 7&amp;gt;=11, !&lt;/font&gt;&lt;/p&gt;" style="shape=partialRectangle;whiteSpace=wrap;html=1;bottom=1;right=1;left=1;top=0;fillColor=none;routingCenterX=-0.5;" vertex="1" parent="1">
                    <mxGeometry x="450" y="157.5" width="130" height="35" as="geometry"/>
                </mxCell>
                <mxCell id="81" value="" style="ellipse;whiteSpace=wrap;html=1;aspect=fixed;" vertex="1" parent="1">
                    <mxGeometry x="820" y="150" width="50" height="50" as="geometry"/>
                </mxCell>
                <mxCell id="82" value="" style="endArrow=classic;startArrow=classic;html=1;fontFamily=Times New Roman;fontSize=10;exitX=0.5;exitY=0;exitDx=0;exitDy=0;entryX=0.5;entryY=1;entryDx=0;entryDy=0;" edge="1" parent="1" source="81" target="73">
                    <mxGeometry width="50" height="50" relative="1" as="geometry">
                        <mxPoint x="734" y="317.5" as="sourcePoint"/>
                        <mxPoint x="765" y="130" as="targetPoint"/>
                    </mxGeometry>
                </mxCell>
                <mxCell id="83" value="&lt;p style=&quot;background-color: rgb(30 , 30 , 30) ; line-height: 18px&quot;&gt;&lt;font face=&quot;Times New Roman&quot; style=&quot;font-size: 10px&quot;&gt;maxFromTwoCut(B, C, Result)&lt;/font&gt;&lt;/p&gt;" style="shape=partialRectangle;whiteSpace=wrap;html=1;bottom=1;right=1;left=1;top=0;fillColor=none;routingCenterX=-0.5;" vertex="1" parent="1">
                    <mxGeometry x="674" y="157.5" width="131" height="35" as="geometry"/>
                </mxCell>
                <mxCell id="84" value="" style="endArrow=classic;startArrow=classic;html=1;fontFamily=Times New Roman;fontSize=10;exitX=0.5;exitY=1;exitDx=0;exitDy=0;entryX=0.5;entryY=0;entryDx=0;entryDy=0;" edge="1" parent="1" target="85" source="81">
                    <mxGeometry width="50" height="50" relative="1" as="geometry">
                        <mxPoint x="845" y="240" as="sourcePoint"/>
                        <mxPoint x="845" y="322.5" as="targetPoint"/>
                    </mxGeometry>
                </mxCell>
                <mxCell id="85" value="" style="ellipse;whiteSpace=wrap;html=1;aspect=fixed;" vertex="1" parent="1">
                    <mxGeometry x="820" y="260" width="50" height="50" as="geometry"/>
                </mxCell>
                <mxCell id="86" value="&lt;p style=&quot;background-color: rgb(30 , 30 , 30) ; line-height: 18px&quot;&gt;&lt;font face=&quot;Times New Roman&quot; style=&quot;font-size: 12px&quot;&gt;22&amp;gt;=11,&amp;nbsp; !&lt;/font&gt;&lt;/p&gt;" style="shape=partialRectangle;whiteSpace=wrap;html=1;bottom=1;right=1;left=1;top=0;fillColor=none;routingCenterX=-0.5;" vertex="1" parent="1">
                    <mxGeometry x="670" y="260" width="121" height="35" as="geometry"/>
                </mxCell>
                <mxCell id="90" value="" style="ellipse;whiteSpace=wrap;html=1;aspect=fixed;" vertex="1" parent="1">
                    <mxGeometry x="820" y="370" width="50" height="50" as="geometry"/>
                </mxCell>
                <mxCell id="91" value="" style="endArrow=classic;startArrow=classic;html=1;fontFamily=Times New Roman;fontSize=10;exitX=0.5;exitY=1;exitDx=0;exitDy=0;entryX=0.5;entryY=0;entryDx=0;entryDy=0;" edge="1" parent="1" source="85" target="90">
                    <mxGeometry width="50" height="50" relative="1" as="geometry">
                        <mxPoint x="855" y="210" as="sourcePoint"/>
                        <mxPoint x="855" y="270" as="targetPoint"/>
                    </mxGeometry>
                </mxCell>
                <mxCell id="92" value="&lt;p style=&quot;background-color: rgb(30 , 30 , 30) ; line-height: 18px&quot;&gt;&lt;font face=&quot;Times New Roman&quot; style=&quot;font-size: 12px&quot;&gt;&amp;nbsp;!&lt;/font&gt;&lt;/p&gt;" style="shape=partialRectangle;whiteSpace=wrap;html=1;bottom=1;right=1;left=1;top=0;fillColor=none;routingCenterX=-0.5;" vertex="1" parent="1">
                    <mxGeometry x="670" y="377.5" width="121" height="35" as="geometry"/>
                </mxCell>
                <mxCell id="93" value="" style="ellipse;whiteSpace=wrap;html=1;aspect=fixed;" vertex="1" parent="1">
                    <mxGeometry x="820" y="480" width="50" height="50" as="geometry"/>
                </mxCell>
                <mxCell id="94" value="" style="endArrow=classic;startArrow=classic;html=1;fontFamily=Times New Roman;fontSize=10;entryX=0.5;entryY=0;entryDx=0;entryDy=0;" edge="1" parent="1" target="93">
                    <mxGeometry width="50" height="50" relative="1" as="geometry">
                        <mxPoint x="845" y="420" as="sourcePoint"/>
                        <mxPoint x="855" y="380" as="targetPoint"/>
                    </mxGeometry>
                </mxCell>
                <mxCell id="95" value="&lt;p style=&quot;background-color: rgb(30 , 30 , 30) ; line-height: 18px&quot;&gt;&lt;br&gt;&lt;/p&gt;" style="shape=partialRectangle;whiteSpace=wrap;html=1;bottom=1;right=1;left=1;top=0;fillColor=none;routingCenterX=-0.5;" vertex="1" parent="1">
                    <mxGeometry x="670" y="487.5" width="121" height="35" as="geometry"/>
                </mxCell>
                <mxCell id="96" value="{A=7, B=22, C=11, R=A}" style="text;html=1;align=center;verticalAlign=middle;resizable=0;points=[];autosize=1;strokeColor=none;fillColor=none;fontSize=10;fontFamily=Times New Roman;" vertex="1" parent="1">
                    <mxGeometry x="539.5" y="100" width="120" height="20" as="geometry"/>
                </mxCell>
                <mxCell id="97" value="{B=22, C=11, R=Result}" style="text;html=1;align=center;verticalAlign=middle;resizable=0;points=[];autosize=1;strokeColor=none;fillColor=none;fontSize=10;fontFamily=Times New Roman;" vertex="1" parent="1">
                    <mxGeometry x="780" y="100" width="120" height="20" as="geometry"/>
                </mxCell>
                <mxCell id="98" value="" style="ellipse;whiteSpace=wrap;html=1;aspect=fixed;" vertex="1" parent="1">
                    <mxGeometry x="1151" y="60" width="50" height="50" as="geometry"/>
                </mxCell>
                <mxCell id="99" value="" style="ellipse;whiteSpace=wrap;html=1;aspect=fixed;" vertex="1" parent="1">
                    <mxGeometry x="1041" y="150" width="50" height="50" as="geometry"/>
                </mxCell>
                <mxCell id="100" value="" style="endArrow=classic;startArrow=classic;html=1;fontFamily=Times New Roman;fontSize=10;exitX=1;exitY=0;exitDx=0;exitDy=0;entryX=0;entryY=1;entryDx=0;entryDy=0;" edge="1" parent="1" source="99" target="98">
                    <mxGeometry width="50" height="50" relative="1" as="geometry">
                        <mxPoint x="1061" y="210" as="sourcePoint"/>
                        <mxPoint x="1111" y="160" as="targetPoint"/>
                    </mxGeometry>
                </mxCell>
                <mxCell id="101" value="" style="ellipse;whiteSpace=wrap;html=1;aspect=fixed;" vertex="1" parent="1">
                    <mxGeometry x="1289" y="150" width="50" height="50" as="geometry"/>
                </mxCell>
                <mxCell id="103" value="&lt;p style=&quot;background-color: rgb(30 , 30 , 30) ; line-height: 18px&quot;&gt;&lt;font face=&quot;Times New Roman&quot; style=&quot;font-size: 10px&quot;&gt;maxFromTwoCut(B, C, Result)&lt;/font&gt;&lt;/p&gt;" style="shape=partialRectangle;whiteSpace=wrap;html=1;bottom=1;right=1;left=1;top=0;fillColor=none;routingCenterX=-0.5;" vertex="1" parent="1">
                    <mxGeometry x="1135" y="165" width="131" height="35" as="geometry"/>
                </mxCell>
                <mxCell id="104" value="" style="endArrow=classic;startArrow=classic;html=1;fontFamily=Times New Roman;fontSize=10;exitX=0.5;exitY=1;exitDx=0;exitDy=0;entryX=0.5;entryY=0;entryDx=0;entryDy=0;" edge="1" parent="1" source="101" target="105">
                    <mxGeometry width="50" height="50" relative="1" as="geometry">
                        <mxPoint x="1296" y="240" as="sourcePoint"/>
                        <mxPoint x="1296" y="322.5" as="targetPoint"/>
                    </mxGeometry>
                </mxCell>
                <mxCell id="105" value="" style="ellipse;whiteSpace=wrap;html=1;aspect=fixed;" vertex="1" parent="1">
                    <mxGeometry x="1289" y="260" width="50" height="50" as="geometry"/>
                </mxCell>
                <mxCell id="106" value="&lt;p style=&quot;background-color: rgb(30 , 30 , 30) ; line-height: 18px&quot;&gt;&lt;font face=&quot;Times New Roman&quot; style=&quot;font-size: 12px&quot;&gt;7&amp;gt;=22,&amp;nbsp; !&lt;/font&gt;&lt;/p&gt;" style="shape=partialRectangle;whiteSpace=wrap;html=1;bottom=1;right=1;left=1;top=0;fillColor=none;routingCenterX=-0.5;" vertex="1" parent="1">
                    <mxGeometry x="1140" y="262.5" width="121" height="35" as="geometry"/>
                </mxCell>
                <mxCell id="107" value="" style="ellipse;whiteSpace=wrap;html=1;aspect=fixed;" vertex="1" parent="1">
                    <mxGeometry x="1480" y="262.5" width="50" height="50" as="geometry"/>
                </mxCell>
                <mxCell id="108" value="" style="endArrow=classic;startArrow=classic;html=1;fontFamily=Times New Roman;fontSize=10;exitX=1;exitY=1;exitDx=0;exitDy=0;entryX=0.5;entryY=0;entryDx=0;entryDy=0;" edge="1" parent="1" source="101" target="107">
                    <mxGeometry width="50" height="50" relative="1" as="geometry">
                        <mxPoint x="1306" y="210" as="sourcePoint"/>
                        <mxPoint x="1306" y="270" as="targetPoint"/>
                    </mxGeometry>
                </mxCell>
                <mxCell id="113" value="{A=11, B=7, C=22, R}" style="text;html=1;align=center;verticalAlign=middle;resizable=0;points=[];autosize=1;strokeColor=none;fillColor=none;fontSize=10;fontFamily=Times New Roman;" vertex="1" parent="1">
                    <mxGeometry x="1011" y="100" width="110" height="20" as="geometry"/>
                </mxCell>
                <mxCell id="114" value="&lt;p style=&quot;background-color: rgb(30 , 30 , 30) ; line-height: 18px&quot;&gt;&lt;font face=&quot;Times New Roman&quot; style=&quot;font-size: 10px&quot;&gt;&lt;font color=&quot;#d4d4d4&quot;&gt;maxFromThreeCut(&lt;/font&gt;&lt;font color=&quot;#b5cea8&quot;&gt;11&lt;/font&gt;&lt;font color=&quot;#d4d4d4&quot;&gt;, &lt;/font&gt;&lt;span style=&quot;color: rgb(181 , 206 , 168)&quot;&gt;7&lt;/span&gt;&lt;font color=&quot;#d4d4d4&quot;&gt;, &lt;/font&gt;&lt;font color=&quot;#b5cea8&quot;&gt;22&lt;/font&gt;&lt;font color=&quot;#d4d4d4&quot;&gt;,&amp;nbsp;&lt;/font&gt;&lt;span style=&quot;color: rgb(156 , 220 , 254)&quot;&gt;R&lt;/span&gt;&lt;font color=&quot;#d4d4d4&quot;&gt;)&lt;/font&gt;&lt;/font&gt;&lt;/p&gt;" style="shape=partialRectangle;whiteSpace=wrap;html=1;bottom=1;right=1;left=1;top=0;fillColor=none;routingCenterX=-0.5;" vertex="1" parent="1">
                    <mxGeometry x="1098" y="10" width="139" height="40" as="geometry"/>
                </mxCell>
                <mxCell id="115" value="" style="endArrow=classic;startArrow=classic;html=1;fontFamily=Times New Roman;fontSize=10;entryX=0.5;entryY=0;entryDx=0;entryDy=0;exitX=0.5;exitY=1;exitDx=0;exitDy=0;" edge="1" parent="1" target="116" source="99">
                    <mxGeometry width="50" height="50" relative="1" as="geometry">
                        <mxPoint x="1066" y="170" as="sourcePoint"/>
                        <mxPoint x="1066" y="322.5" as="targetPoint"/>
                    </mxGeometry>
                </mxCell>
                <mxCell id="116" value="" style="ellipse;whiteSpace=wrap;html=1;aspect=fixed;" vertex="1" parent="1">
                    <mxGeometry x="1041" y="260" width="50" height="50" as="geometry"/>
                </mxCell>
                <mxCell id="117" value="&lt;p style=&quot;background-color: rgb(30 , 30 , 30) ; line-height: 18px&quot;&gt;&lt;font face=&quot;Times New Roman&quot; style=&quot;font-size: 10px&quot;&gt;11&amp;gt;=7, 11&amp;gt;=22, !&lt;/font&gt;&lt;/p&gt;" style="shape=partialRectangle;whiteSpace=wrap;html=1;bottom=1;right=1;left=1;top=0;fillColor=none;routingCenterX=-0.5;" vertex="1" parent="1">
                    <mxGeometry x="910" y="157.5" width="121" height="35" as="geometry"/>
                </mxCell>
                <mxCell id="118" value="&lt;p style=&quot;background-color: rgb(30 , 30 , 30) ; line-height: 18px&quot;&gt;&lt;font face=&quot;Times New Roman&quot; style=&quot;font-size: 12px&quot;&gt;11&amp;gt;=22,&amp;nbsp; !&lt;/font&gt;&lt;/p&gt;" style="shape=partialRectangle;whiteSpace=wrap;html=1;bottom=1;right=1;left=1;top=0;fillColor=none;routingCenterX=-0.5;" vertex="1" parent="1">
                    <mxGeometry x="910" y="260" width="121" height="35" as="geometry"/>
                </mxCell>
                <mxCell id="119" value="{B=7, C=22, R=Result}" style="text;html=1;align=center;verticalAlign=middle;resizable=0;points=[];autosize=1;strokeColor=none;fillColor=none;fontSize=10;fontFamily=Times New Roman;" vertex="1" parent="1">
                    <mxGeometry x="1186" y="120" width="110" height="20" as="geometry"/>
                </mxCell>
                <mxCell id="121" value="{B=C=22, R=B=22}" style="text;html=1;align=center;verticalAlign=middle;resizable=0;points=[];autosize=1;strokeColor=none;fillColor=none;fontSize=10;fontFamily=Times New Roman;" vertex="1" parent="1">
                    <mxGeometry x="1390" y="200" width="100" height="20" as="geometry"/>
                </mxCell>
                <mxCell id="122" value="{A=B=7, B=C=22, Result=7}" style="text;html=1;align=center;verticalAlign=middle;resizable=0;points=[];autosize=1;strokeColor=none;fillColor=none;fontSize=10;fontFamily=Times New Roman;" vertex="1" parent="1">
                    <mxGeometry x="1141" y="220" width="140" height="20" as="geometry"/>
                </mxCell>
                <mxCell id="123" value="&lt;p style=&quot;background-color: rgb(30 , 30 , 30) ; line-height: 18px&quot;&gt;&lt;br&gt;&lt;/p&gt;" style="shape=partialRectangle;whiteSpace=wrap;html=1;bottom=1;right=1;left=1;top=0;fillColor=none;routingCenterX=-0.5;" vertex="1" parent="1">
                    <mxGeometry x="1350" y="267.5" width="121" height="35" as="geometry"/>
                </mxCell>
                <mxCell id="126" value="" style="endArrow=classic;startArrow=classic;html=1;fontFamily=Times New Roman;fontSize=10;exitX=0.5;exitY=0;exitDx=0;exitDy=0;entryX=0.5;entryY=1;entryDx=0;entryDy=0;" edge="1" parent="1" source="130" target="127">
                    <mxGeometry width="50" height="50" relative="1" as="geometry">
                        <mxPoint x="305" y="927.5" as="sourcePoint"/>
                        <mxPoint x="336" y="740" as="targetPoint"/>
                    </mxGeometry>
                </mxCell>
                <mxCell id="127" value="" style="ellipse;whiteSpace=wrap;html=1;aspect=fixed;" vertex="1" parent="1">
                    <mxGeometry x="271" y="670" width="50" height="50" as="geometry"/>
                </mxCell>
                <mxCell id="128" value="" style="ellipse;whiteSpace=wrap;html=1;aspect=fixed;" vertex="1" parent="1">
                    <mxGeometry x="161" y="760" width="50" height="50" as="geometry"/>
                </mxCell>
                <mxCell id="129" value="" style="endArrow=classic;startArrow=classic;html=1;fontFamily=Times New Roman;fontSize=10;exitX=1;exitY=0;exitDx=0;exitDy=0;entryX=0;entryY=1;entryDx=0;entryDy=0;" edge="1" parent="1" source="128" target="127">
                    <mxGeometry width="50" height="50" relative="1" as="geometry">
                        <mxPoint x="181" y="820" as="sourcePoint"/>
                        <mxPoint x="231" y="770" as="targetPoint"/>
                    </mxGeometry>
                </mxCell>
                <mxCell id="130" value="" style="ellipse;whiteSpace=wrap;html=1;aspect=fixed;" vertex="1" parent="1">
                    <mxGeometry x="391" y="760" width="50" height="50" as="geometry"/>
                </mxCell>
                <mxCell id="131" value="&lt;p style=&quot;background-color: rgb(30 , 30 , 30) ; line-height: 18px&quot;&gt;&lt;font face=&quot;Times New Roman&quot; style=&quot;font-size: 10px&quot;&gt;maxFromTwo(B, C, Result)&lt;/font&gt;&lt;/p&gt;" style="shape=partialRectangle;whiteSpace=wrap;html=1;bottom=1;right=1;left=1;top=0;fillColor=none;routingCenterX=-0.5;" vertex="1" parent="1">
                    <mxGeometry x="260" y="770" width="121" height="35" as="geometry"/>
                </mxCell>
                <mxCell id="132" value="" style="endArrow=classic;startArrow=classic;html=1;fontFamily=Times New Roman;fontSize=10;exitX=0.5;exitY=1;exitDx=0;exitDy=0;entryX=0.5;entryY=0;entryDx=0;entryDy=0;" edge="1" parent="1" source="130" target="133">
                    <mxGeometry width="50" height="50" relative="1" as="geometry">
                        <mxPoint x="416" y="850" as="sourcePoint"/>
                        <mxPoint x="416" y="932.5" as="targetPoint"/>
                    </mxGeometry>
                </mxCell>
                <mxCell id="133" value="" style="ellipse;whiteSpace=wrap;html=1;aspect=fixed;" vertex="1" parent="1">
                    <mxGeometry x="391" y="870" width="50" height="50" as="geometry"/>
                </mxCell>
                <mxCell id="134" value="&lt;p style=&quot;background-color: rgb(30 , 30 , 30) ; line-height: 18px&quot;&gt;&lt;font face=&quot;Times New Roman&quot; style=&quot;font-size: 12px&quot;&gt;7&amp;gt;=11&lt;/font&gt;&lt;/p&gt;" style="shape=partialRectangle;whiteSpace=wrap;html=1;bottom=1;right=1;left=1;top=0;fillColor=none;routingCenterX=-0.5;" vertex="1" parent="1">
                    <mxGeometry x="260" y="872.5" width="121" height="35" as="geometry"/>
                </mxCell>
                <mxCell id="135" value="" style="ellipse;whiteSpace=wrap;html=1;aspect=fixed;" vertex="1" parent="1">
                    <mxGeometry x="580" y="872.5" width="50" height="50" as="geometry"/>
                </mxCell>
                <mxCell id="136" value="" style="endArrow=classic;startArrow=classic;html=1;fontFamily=Times New Roman;fontSize=10;exitX=1;exitY=1;exitDx=0;exitDy=0;entryX=0.5;entryY=0;entryDx=0;entryDy=0;" edge="1" parent="1" source="130" target="135">
                    <mxGeometry width="50" height="50" relative="1" as="geometry">
                        <mxPoint x="426" y="820" as="sourcePoint"/>
                        <mxPoint x="426" y="880" as="targetPoint"/>
                    </mxGeometry>
                </mxCell>
                <mxCell id="137" value="{A=22, B=7, C=11, R=22}" style="text;html=1;align=center;verticalAlign=middle;resizable=0;points=[];autosize=1;strokeColor=none;fillColor=none;fontSize=10;fontFamily=Times New Roman;" vertex="1" parent="1">
                    <mxGeometry x="91" y="720" width="120" height="20" as="geometry"/>
                </mxCell>
                <mxCell id="138" value="&lt;p style=&quot;background-color: rgb(30 , 30 , 30) ; line-height: 18px&quot;&gt;&lt;font face=&quot;Times New Roman&quot; style=&quot;font-size: 10px&quot;&gt;&lt;font color=&quot;#d4d4d4&quot;&gt;maxFromThree(&lt;/font&gt;&lt;font color=&quot;#b5cea8&quot;&gt;22&lt;/font&gt;&lt;font color=&quot;#d4d4d4&quot;&gt;, &lt;/font&gt;&lt;span style=&quot;color: rgb(181 , 206 , 168)&quot;&gt;7&lt;/span&gt;&lt;font color=&quot;#d4d4d4&quot;&gt;, &lt;/font&gt;&lt;font color=&quot;#b5cea8&quot;&gt;11&lt;/font&gt;&lt;font color=&quot;#d4d4d4&quot;&gt;,&amp;nbsp;&lt;/font&gt;&lt;span style=&quot;color: rgb(156 , 220 , 254)&quot;&gt;R&lt;/span&gt;&lt;font color=&quot;#d4d4d4&quot;&gt;)&lt;/font&gt;&lt;/font&gt;&lt;/p&gt;" style="shape=partialRectangle;whiteSpace=wrap;html=1;bottom=1;right=1;left=1;top=0;fillColor=none;routingCenterX=-0.5;" vertex="1" parent="1">
                    <mxGeometry x="218" y="620" width="139" height="40" as="geometry"/>
                </mxCell>
                <mxCell id="139" value="" style="endArrow=classic;startArrow=classic;html=1;fontFamily=Times New Roman;fontSize=10;entryX=0.5;entryY=0;entryDx=0;entryDy=0;exitX=0.5;exitY=1;exitDx=0;exitDy=0;" edge="1" parent="1" source="128" target="140">
                    <mxGeometry width="50" height="50" relative="1" as="geometry">
                        <mxPoint x="186" y="780" as="sourcePoint"/>
                        <mxPoint x="186" y="932.5" as="targetPoint"/>
                    </mxGeometry>
                </mxCell>
                <mxCell id="140" value="" style="ellipse;whiteSpace=wrap;html=1;aspect=fixed;" vertex="1" parent="1">
                    <mxGeometry x="161" y="870" width="50" height="50" as="geometry"/>
                </mxCell>
                <mxCell id="141" value="&lt;p style=&quot;background-color: rgb(30 , 30 , 30) ; line-height: 18px&quot;&gt;&lt;font face=&quot;Times New Roman&quot; style=&quot;font-size: 10px&quot;&gt;22&amp;gt;=7, 22&amp;gt;=11&lt;/font&gt;&lt;/p&gt;" style="shape=partialRectangle;whiteSpace=wrap;html=1;bottom=1;right=1;left=1;top=0;fillColor=none;routingCenterX=-0.5;" vertex="1" parent="1">
                    <mxGeometry x="30" y="767.5" width="121" height="35" as="geometry"/>
                </mxCell>
                <mxCell id="142" value="&lt;p style=&quot;background-color: rgb(30 , 30 , 30) ; line-height: 18px&quot;&gt;&lt;font face=&quot;Times New Roman&quot; style=&quot;font-size: 12px&quot;&gt;22&amp;gt;=11&lt;/font&gt;&lt;/p&gt;" style="shape=partialRectangle;whiteSpace=wrap;html=1;bottom=1;right=1;left=1;top=0;fillColor=none;routingCenterX=-0.5;" vertex="1" parent="1">
                    <mxGeometry x="30" y="870" width="121" height="35" as="geometry"/>
                </mxCell>
                <mxCell id="143" value="{A=22, B=7, C=11, R=Result}" style="text;html=1;align=center;verticalAlign=middle;resizable=0;points=[];autosize=1;strokeColor=none;fillColor=none;fontSize=10;fontFamily=Times New Roman;" vertex="1" parent="1">
                    <mxGeometry x="316" y="710" width="140" height="20" as="geometry"/>
                </mxCell>
                <mxCell id="144" value="{A=B=7, B=C=11, Result=B}" style="text;html=1;align=center;verticalAlign=middle;resizable=0;points=[];autosize=1;strokeColor=none;fillColor=none;fontSize=10;fontFamily=Times New Roman;" vertex="1" parent="1">
                    <mxGeometry x="524.5" y="820" width="140" height="20" as="geometry"/>
                </mxCell>
                <mxCell id="145" value="{A=B=7, B=C=11, Result=A}" style="text;html=1;align=center;verticalAlign=middle;resizable=0;points=[];autosize=1;strokeColor=none;fillColor=none;fontSize=10;fontFamily=Times New Roman;" vertex="1" parent="1">
                    <mxGeometry x="261" y="830" width="140" height="20" as="geometry"/>
                </mxCell>
                <mxCell id="146" value="&lt;p style=&quot;background-color: rgb(30 , 30 , 30) ; line-height: 18px&quot;&gt;7&amp;lt;11&lt;/p&gt;" style="shape=partialRectangle;whiteSpace=wrap;html=1;bottom=1;right=1;left=1;top=0;fillColor=none;routingCenterX=-0.5;" vertex="1" parent="1">
                    <mxGeometry x="450" y="877.5" width="121" height="35" as="geometry"/>
                </mxCell>
                <mxCell id="147" value="" style="ellipse;whiteSpace=wrap;html=1;aspect=fixed;" vertex="1" parent="1">
                    <mxGeometry x="160" y="990" width="50" height="50" as="geometry"/>
                </mxCell>
                <mxCell id="148" value="" style="endArrow=classic;startArrow=classic;html=1;fontFamily=Times New Roman;fontSize=10;entryX=0.5;entryY=0;entryDx=0;entryDy=0;exitX=0.5;exitY=1;exitDx=0;exitDy=0;" edge="1" parent="1" source="140" target="147">
                    <mxGeometry width="50" height="50" relative="1" as="geometry">
                        <mxPoint x="196" y="820" as="sourcePoint"/>
                        <mxPoint x="196" y="880" as="targetPoint"/>
                    </mxGeometry>
                </mxCell>
                <mxCell id="149" value="&lt;p style=&quot;background-color: rgb(30 , 30 , 30) ; line-height: 18px&quot;&gt;&lt;br&gt;&lt;/p&gt;" style="shape=partialRectangle;whiteSpace=wrap;html=1;bottom=1;right=1;left=1;top=0;fillColor=none;routingCenterX=-0.5;" vertex="1" parent="1">
                    <mxGeometry x="30" y="980" width="121" height="35" as="geometry"/>
                </mxCell>
                <mxCell id="150" value="{A=B=22, B=C=11, Result=22}" style="text;html=1;align=center;verticalAlign=middle;resizable=0;points=[];autosize=1;strokeColor=none;fillColor=none;fontSize=10;fontFamily=Times New Roman;" vertex="1" parent="1">
                    <mxGeometry x="664.5" y="215" width="150" height="20" as="geometry"/>
                </mxCell>
                <mxCell id="152" value="{A=11, B=7, C=22, R = A}" style="text;html=1;align=center;verticalAlign=middle;resizable=0;points=[];autosize=1;strokeColor=none;fillColor=none;fontSize=10;fontFamily=Times New Roman;" vertex="1" parent="1">
                    <mxGeometry x="921" y="210" width="130" height="20" as="geometry"/>
                </mxCell>
                <mxCell id="153" value="{A=22, B=7, C=11, R=A}" style="text;html=1;align=center;verticalAlign=middle;resizable=0;points=[];autosize=1;strokeColor=none;fillColor=none;fontSize=10;fontFamily=Times New Roman;" vertex="1" parent="1">
                    <mxGeometry x="45" y="240" width="120" height="20" as="geometry"/>
                </mxCell>
                <mxCell id="155" value="{A=B=7, B=C=22, Result=7}" style="text;html=1;align=center;verticalAlign=middle;resizable=0;points=[];autosize=1;strokeColor=none;fillColor=none;fontSize=10;fontFamily=Times New Roman;" vertex="1" parent="1">
                    <mxGeometry x="1151" y="230" width="140" height="20" as="geometry"/>
                </mxCell>
                <mxCell id="156" value="" style="ellipse;whiteSpace=wrap;html=1;aspect=fixed;" vertex="1" parent="1">
                    <mxGeometry x="580" y="990" width="50" height="50" as="geometry"/>
                </mxCell>
                <mxCell id="157" value="" style="endArrow=classic;startArrow=classic;html=1;fontFamily=Times New Roman;fontSize=10;exitX=0.5;exitY=1;exitDx=0;exitDy=0;entryX=0.5;entryY=0;entryDx=0;entryDy=0;" edge="1" parent="1" source="135" target="156">
                    <mxGeometry width="50" height="50" relative="1" as="geometry">
                        <mxPoint x="426" y="820" as="sourcePoint"/>
                        <mxPoint x="426" y="880" as="targetPoint"/>
                    </mxGeometry>
                </mxCell>
                <mxCell id="158" value="&lt;p style=&quot;background-color: rgb(30 , 30 , 30) ; line-height: 18px&quot;&gt;&lt;br&gt;&lt;/p&gt;" style="shape=partialRectangle;whiteSpace=wrap;html=1;bottom=1;right=1;left=1;top=0;fillColor=none;routingCenterX=-0.5;" vertex="1" parent="1">
                    <mxGeometry x="450" y="990" width="121" height="35" as="geometry"/>
                </mxCell>
                <mxCell id="159" value="" style="ellipse;whiteSpace=wrap;html=1;aspect=fixed;" vertex="1" parent="1">
                    <mxGeometry x="880" y="670" width="50" height="50" as="geometry"/>
                </mxCell>
                <mxCell id="160" value="" style="ellipse;whiteSpace=wrap;html=1;aspect=fixed;" vertex="1" parent="1">
                    <mxGeometry x="770" y="760" width="50" height="50" as="geometry"/>
                </mxCell>
                <mxCell id="161" value="" style="endArrow=classic;startArrow=classic;html=1;fontFamily=Times New Roman;fontSize=10;exitX=1;exitY=0;exitDx=0;exitDy=0;entryX=0;entryY=1;entryDx=0;entryDy=0;" edge="1" source="160" target="159" parent="1">
                    <mxGeometry width="50" height="50" relative="1" as="geometry">
                        <mxPoint x="790" y="820" as="sourcePoint"/>
                        <mxPoint x="840" y="770" as="targetPoint"/>
                    </mxGeometry>
                </mxCell>
                <mxCell id="162" value="" style="ellipse;whiteSpace=wrap;html=1;aspect=fixed;" vertex="1" parent="1">
                    <mxGeometry x="1000" y="760" width="50" height="50" as="geometry"/>
                </mxCell>
                <mxCell id="163" value="" style="endArrow=classic;startArrow=classic;html=1;fontFamily=Times New Roman;fontSize=10;exitX=0.5;exitY=0;exitDx=0;exitDy=0;entryX=0.5;entryY=1;entryDx=0;entryDy=0;" edge="1" source="162" target="159" parent="1">
                    <mxGeometry width="50" height="50" relative="1" as="geometry">
                        <mxPoint x="914" y="927.5" as="sourcePoint"/>
                        <mxPoint x="945" y="740" as="targetPoint"/>
                    </mxGeometry>
                </mxCell>
                <mxCell id="164" value="&lt;p style=&quot;background-color: rgb(30 , 30 , 30) ; line-height: 18px&quot;&gt;&lt;font face=&quot;Times New Roman&quot; style=&quot;font-size: 10px&quot;&gt;maxFromTwo(B, C, Result)&lt;/font&gt;&lt;/p&gt;" style="shape=partialRectangle;whiteSpace=wrap;html=1;bottom=1;right=1;left=1;top=0;fillColor=none;routingCenterX=-0.5;" vertex="1" parent="1">
                    <mxGeometry x="854" y="767.5" width="131" height="35" as="geometry"/>
                </mxCell>
                <mxCell id="165" value="" style="endArrow=classic;startArrow=classic;html=1;fontFamily=Times New Roman;fontSize=10;exitX=0.5;exitY=1;exitDx=0;exitDy=0;entryX=0.5;entryY=0;entryDx=0;entryDy=0;" edge="1" source="162" target="166" parent="1">
                    <mxGeometry width="50" height="50" relative="1" as="geometry">
                        <mxPoint x="1025" y="850" as="sourcePoint"/>
                        <mxPoint x="1025" y="932.5" as="targetPoint"/>
                    </mxGeometry>
                </mxCell>
                <mxCell id="166" value="" style="ellipse;whiteSpace=wrap;html=1;aspect=fixed;" vertex="1" parent="1">
                    <mxGeometry x="1000" y="870" width="50" height="50" as="geometry"/>
                </mxCell>
                <mxCell id="167" value="&lt;p style=&quot;background-color: rgb(30 , 30 , 30) ; line-height: 18px&quot;&gt;&lt;font face=&quot;Times New Roman&quot; style=&quot;font-size: 12px&quot;&gt;22&amp;gt;=11&lt;/font&gt;&lt;/p&gt;" style="shape=partialRectangle;whiteSpace=wrap;html=1;bottom=1;right=1;left=1;top=0;fillColor=none;routingCenterX=-0.5;" vertex="1" parent="1">
                    <mxGeometry x="850" y="870" width="121" height="35" as="geometry"/>
                </mxCell>
                <mxCell id="168" value="" style="ellipse;whiteSpace=wrap;html=1;aspect=fixed;" vertex="1" parent="1">
                    <mxGeometry x="1000" y="980" width="50" height="50" as="geometry"/>
                </mxCell>
                <mxCell id="169" value="" style="endArrow=classic;startArrow=classic;html=1;fontFamily=Times New Roman;fontSize=10;exitX=0.5;exitY=1;exitDx=0;exitDy=0;entryX=0.5;entryY=0;entryDx=0;entryDy=0;" edge="1" source="166" target="168" parent="1">
                    <mxGeometry width="50" height="50" relative="1" as="geometry">
                        <mxPoint x="1035" y="820" as="sourcePoint"/>
                        <mxPoint x="1035" y="880" as="targetPoint"/>
                    </mxGeometry>
                </mxCell>
                <mxCell id="170" value="&lt;p style=&quot;background-color: rgb(30 , 30 , 30) ; line-height: 18px&quot;&gt;&lt;br&gt;&lt;/p&gt;" style="shape=partialRectangle;whiteSpace=wrap;html=1;bottom=1;right=1;left=1;top=0;fillColor=none;routingCenterX=-0.5;" vertex="1" parent="1">
                    <mxGeometry x="850" y="987.5" width="121" height="35" as="geometry"/>
                </mxCell>
                <mxCell id="174" value="{A=7, B=22, C=11, R=A}" style="text;html=1;align=center;verticalAlign=middle;resizable=0;points=[];autosize=1;strokeColor=none;fillColor=none;fontSize=10;fontFamily=Times New Roman;" vertex="1" parent="1">
                    <mxGeometry x="719.5" y="710" width="120" height="20" as="geometry"/>
                </mxCell>
                <mxCell id="175" value="{B=22, C=11, R=Result}" style="text;html=1;align=center;verticalAlign=middle;resizable=0;points=[];autosize=1;strokeColor=none;fillColor=none;fontSize=10;fontFamily=Times New Roman;" vertex="1" parent="1">
                    <mxGeometry x="960" y="710" width="120" height="20" as="geometry"/>
                </mxCell>
                <mxCell id="176" value="{A=B=22, B=C=11, Result=22}" style="text;html=1;align=center;verticalAlign=middle;resizable=0;points=[];autosize=1;strokeColor=none;fillColor=none;fontSize=10;fontFamily=Times New Roman;" vertex="1" parent="1">
                    <mxGeometry x="844.5" y="825" width="150" height="20" as="geometry"/>
                </mxCell>
                <mxCell id="177" value="&lt;p style=&quot;background-color: rgb(30 , 30 , 30) ; line-height: 18px&quot;&gt;&lt;font face=&quot;Times New Roman&quot; style=&quot;font-size: 12px&quot;&gt;7&amp;gt;=22, 7&amp;gt;=11&lt;/font&gt;&lt;/p&gt;" style="shape=partialRectangle;whiteSpace=wrap;html=1;bottom=1;right=1;left=1;top=0;fillColor=none;routingCenterX=-0.5;" vertex="1" parent="1">
                    <mxGeometry x="630" y="767.5" width="130" height="35" as="geometry"/>
                </mxCell>
                <mxCell id="178" value="&lt;p style=&quot;background-color: rgb(30 , 30 , 30) ; line-height: 18px&quot;&gt;&lt;font face=&quot;Times New Roman&quot; style=&quot;font-size: 10px&quot;&gt;&lt;font color=&quot;#d4d4d4&quot;&gt;maxFromThree(&lt;/font&gt;&lt;font color=&quot;#b5cea8&quot;&gt;7&lt;/font&gt;&lt;font color=&quot;#d4d4d4&quot;&gt;, &lt;/font&gt;&lt;span style=&quot;color: rgb(181 , 206 , 168)&quot;&gt;22&lt;/span&gt;&lt;font color=&quot;#d4d4d4&quot;&gt;, &lt;/font&gt;&lt;font color=&quot;#b5cea8&quot;&gt;11&lt;/font&gt;&lt;font color=&quot;#d4d4d4&quot;&gt;,&amp;nbsp;&lt;/font&gt;&lt;span style=&quot;color: rgb(156 , 220 , 254)&quot;&gt;R&lt;/span&gt;&lt;font color=&quot;#d4d4d4&quot;&gt;)&lt;/font&gt;&lt;/font&gt;&lt;/p&gt;" style="shape=partialRectangle;whiteSpace=wrap;html=1;bottom=1;right=1;left=1;top=0;fillColor=none;routingCenterX=-0.5;" vertex="1" parent="1">
                    <mxGeometry x="850" y="620" width="139" height="40" as="geometry"/>
                </mxCell>
                <mxCell id="199" value="" style="ellipse;whiteSpace=wrap;html=1;aspect=fixed;" vertex="1" parent="1">
                    <mxGeometry x="1186" y="865" width="50" height="50" as="geometry"/>
                </mxCell>
                <mxCell id="200" value="" style="endArrow=classic;startArrow=classic;html=1;fontFamily=Times New Roman;fontSize=10;exitX=1;exitY=0.5;exitDx=0;exitDy=0;entryX=0.5;entryY=0;entryDx=0;entryDy=0;" edge="1" parent="1" source="162" target="199">
                    <mxGeometry width="50" height="50" relative="1" as="geometry">
                        <mxPoint x="1035" y="820" as="sourcePoint"/>
                        <mxPoint x="1035" y="880" as="targetPoint"/>
                    </mxGeometry>
                </mxCell>
                <mxCell id="201" value="{A=B=22, B=C=11, Result=11}" style="text;html=1;align=center;verticalAlign=middle;resizable=0;points=[];autosize=1;strokeColor=none;fillColor=none;fontSize=10;fontFamily=Times New Roman;" vertex="1" parent="1">
                    <mxGeometry x="1116" y="805" width="150" height="20" as="geometry"/>
                </mxCell>
                <mxCell id="202" value="&lt;p style=&quot;background-color: rgb(30 , 30 , 30) ; line-height: 18px&quot;&gt;&lt;font face=&quot;Times New Roman&quot; style=&quot;font-size: 12px&quot;&gt;22&amp;lt;11&lt;/font&gt;&lt;/p&gt;" style="shape=partialRectangle;whiteSpace=wrap;html=1;bottom=1;right=1;left=1;top=0;fillColor=none;routingCenterX=-0.5;" vertex="1" parent="1">
                    <mxGeometry x="1060" y="870" width="121" height="35" as="geometry"/>
                </mxCell>
                <mxCell id="206" value="" style="endArrow=classic;startArrow=classic;html=1;fontFamily=Times New Roman;fontSize=10;exitX=0.5;exitY=0;exitDx=0;exitDy=0;entryX=0.5;entryY=1;entryDx=0;entryDy=0;" edge="1" source="210" target="207" parent="1">
                    <mxGeometry width="50" height="50" relative="1" as="geometry">
                        <mxPoint x="1585" y="925.5" as="sourcePoint"/>
                        <mxPoint x="1616" y="738" as="targetPoint"/>
                    </mxGeometry>
                </mxCell>
                <mxCell id="207" value="" style="ellipse;whiteSpace=wrap;html=1;aspect=fixed;" vertex="1" parent="1">
                    <mxGeometry x="1551" y="668" width="50" height="50" as="geometry"/>
                </mxCell>
                <mxCell id="208" value="" style="ellipse;whiteSpace=wrap;html=1;aspect=fixed;" vertex="1" parent="1">
                    <mxGeometry x="1441" y="758" width="50" height="50" as="geometry"/>
                </mxCell>
                <mxCell id="209" value="" style="endArrow=classic;startArrow=classic;html=1;fontFamily=Times New Roman;fontSize=10;exitX=1;exitY=0;exitDx=0;exitDy=0;entryX=0;entryY=1;entryDx=0;entryDy=0;" edge="1" source="208" target="207" parent="1">
                    <mxGeometry width="50" height="50" relative="1" as="geometry">
                        <mxPoint x="1461" y="818" as="sourcePoint"/>
                        <mxPoint x="1511" y="768" as="targetPoint"/>
                    </mxGeometry>
                </mxCell>
                <mxCell id="210" value="" style="ellipse;whiteSpace=wrap;html=1;aspect=fixed;" vertex="1" parent="1">
                    <mxGeometry x="1689" y="758" width="50" height="50" as="geometry"/>
                </mxCell>
                <mxCell id="211" value="&lt;p style=&quot;background-color: rgb(30 , 30 , 30) ; line-height: 18px&quot;&gt;&lt;font face=&quot;Times New Roman&quot; style=&quot;font-size: 10px&quot;&gt;maxFromTwo(B, C, Result)&lt;/font&gt;&lt;/p&gt;" style="shape=partialRectangle;whiteSpace=wrap;html=1;bottom=1;right=1;left=1;top=0;fillColor=none;routingCenterX=-0.5;" vertex="1" parent="1">
                    <mxGeometry x="1535" y="773" width="131" height="35" as="geometry"/>
                </mxCell>
                <mxCell id="212" value="" style="endArrow=classic;startArrow=classic;html=1;fontFamily=Times New Roman;fontSize=10;exitX=0.5;exitY=1;exitDx=0;exitDy=0;entryX=0.5;entryY=0;entryDx=0;entryDy=0;" edge="1" source="210" target="213" parent="1">
                    <mxGeometry width="50" height="50" relative="1" as="geometry">
                        <mxPoint x="1696" y="848" as="sourcePoint"/>
                        <mxPoint x="1696" y="930.5" as="targetPoint"/>
                    </mxGeometry>
                </mxCell>
                <mxCell id="213" value="" style="ellipse;whiteSpace=wrap;html=1;aspect=fixed;" vertex="1" parent="1">
                    <mxGeometry x="1689" y="868" width="50" height="50" as="geometry"/>
                </mxCell>
                <mxCell id="214" value="&lt;p style=&quot;background-color: rgb(30 , 30 , 30) ; line-height: 18px&quot;&gt;&lt;font face=&quot;Times New Roman&quot; style=&quot;font-size: 12px&quot;&gt;7&amp;gt;=22&lt;/font&gt;&lt;/p&gt;" style="shape=partialRectangle;whiteSpace=wrap;html=1;bottom=1;right=1;left=1;top=0;fillColor=none;routingCenterX=-0.5;" vertex="1" parent="1">
                    <mxGeometry x="1545" y="870.5" width="121" height="35" as="geometry"/>
                </mxCell>
                <mxCell id="215" value="" style="endArrow=classic;startArrow=classic;html=1;fontFamily=Times New Roman;fontSize=10;exitX=1;exitY=1;exitDx=0;exitDy=0;entryX=0.5;entryY=0;entryDx=0;entryDy=0;" edge="1" source="210" parent="1" target="228">
                    <mxGeometry width="50" height="50" relative="1" as="geometry">
                        <mxPoint x="1706" y="818" as="sourcePoint"/>
                        <mxPoint x="1935" y="860.5" as="targetPoint"/>
                    </mxGeometry>
                </mxCell>
                <mxCell id="216" value="{A=11, B=7, C=22, R}" style="text;html=1;align=center;verticalAlign=middle;resizable=0;points=[];autosize=1;strokeColor=none;fillColor=none;fontSize=10;fontFamily=Times New Roman;" vertex="1" parent="1">
                    <mxGeometry x="1411" y="708" width="110" height="20" as="geometry"/>
                </mxCell>
                <mxCell id="217" value="" style="endArrow=classic;startArrow=classic;html=1;fontFamily=Times New Roman;fontSize=10;entryX=0.5;entryY=0;entryDx=0;entryDy=0;exitX=0.5;exitY=1;exitDx=0;exitDy=0;" edge="1" source="208" target="218" parent="1">
                    <mxGeometry width="50" height="50" relative="1" as="geometry">
                        <mxPoint x="1466" y="778" as="sourcePoint"/>
                        <mxPoint x="1466" y="930.5" as="targetPoint"/>
                    </mxGeometry>
                </mxCell>
                <mxCell id="218" value="" style="ellipse;whiteSpace=wrap;html=1;aspect=fixed;" vertex="1" parent="1">
                    <mxGeometry x="1441" y="868" width="50" height="50" as="geometry"/>
                </mxCell>
                <mxCell id="219" value="{B=7, C=22, R=Result}" style="text;html=1;align=center;verticalAlign=middle;resizable=0;points=[];autosize=1;strokeColor=none;fillColor=none;fontSize=10;fontFamily=Times New Roman;" vertex="1" parent="1">
                    <mxGeometry x="1620" y="708" width="110" height="20" as="geometry"/>
                </mxCell>
                <mxCell id="220" value="{B=C=22, Result=B=22}" style="text;html=1;align=center;verticalAlign=middle;resizable=0;points=[];autosize=1;strokeColor=none;fillColor=none;fontSize=10;fontFamily=Times New Roman;" vertex="1" parent="1">
                    <mxGeometry x="1761" y="788" width="120" height="20" as="geometry"/>
                </mxCell>
                <mxCell id="221" value="{A=B=7, B=C=22, Result=7}" style="text;html=1;align=center;verticalAlign=middle;resizable=0;points=[];autosize=1;strokeColor=none;fillColor=none;fontSize=10;fontFamily=Times New Roman;" vertex="1" parent="1">
                    <mxGeometry x="1541" y="828" width="140" height="20" as="geometry"/>
                </mxCell>
                <mxCell id="222" value="&lt;p style=&quot;background-color: rgb(30 , 30 , 30) ; line-height: 18px&quot;&gt;7&amp;lt;22&lt;/p&gt;" style="shape=partialRectangle;whiteSpace=wrap;html=1;bottom=1;right=1;left=1;top=0;fillColor=none;routingCenterX=-0.5;" vertex="1" parent="1">
                    <mxGeometry x="1770" y="868" width="121" height="35" as="geometry"/>
                </mxCell>
                <mxCell id="224" value="{A=11, B=7, C=22, R = A}" style="text;html=1;align=center;verticalAlign=middle;resizable=0;points=[];autosize=1;strokeColor=none;fillColor=none;fontSize=10;fontFamily=Times New Roman;" vertex="1" parent="1">
                    <mxGeometry x="1321" y="818" width="130" height="20" as="geometry"/>
                </mxCell>
                <mxCell id="225" value="&lt;p style=&quot;background-color: rgb(30 , 30 , 30) ; line-height: 18px&quot;&gt;&lt;font face=&quot;Times New Roman&quot; style=&quot;font-size: 12px&quot;&gt;11&amp;gt;=22&lt;/font&gt;&lt;/p&gt;" style="shape=partialRectangle;whiteSpace=wrap;html=1;bottom=1;right=1;left=1;top=0;fillColor=none;routingCenterX=-0.5;" vertex="1" parent="1">
                    <mxGeometry x="1310" y="868" width="121" height="35" as="geometry"/>
                </mxCell>
                <mxCell id="226" value="&lt;p style=&quot;background-color: rgb(30 , 30 , 30) ; line-height: 18px&quot;&gt;&lt;font face=&quot;Times New Roman&quot; style=&quot;font-size: 10px&quot;&gt;11&amp;gt;=7, 11&amp;gt;=22&lt;/font&gt;&lt;/p&gt;" style="shape=partialRectangle;whiteSpace=wrap;html=1;bottom=1;right=1;left=1;top=0;fillColor=none;routingCenterX=-0.5;" vertex="1" parent="1">
                    <mxGeometry x="1310" y="765.5" width="121" height="35" as="geometry"/>
                </mxCell>
                <mxCell id="227" value="&lt;p style=&quot;background-color: rgb(30 , 30 , 30) ; line-height: 18px&quot;&gt;&lt;font face=&quot;Times New Roman&quot; style=&quot;font-size: 10px&quot;&gt;&lt;font color=&quot;#d4d4d4&quot;&gt;maxFromThree(&lt;/font&gt;&lt;font color=&quot;#b5cea8&quot;&gt;11&lt;/font&gt;&lt;font color=&quot;#d4d4d4&quot;&gt;, &lt;/font&gt;&lt;span style=&quot;color: rgb(181 , 206 , 168)&quot;&gt;7&lt;/span&gt;&lt;font color=&quot;#d4d4d4&quot;&gt;, &lt;/font&gt;&lt;font color=&quot;#b5cea8&quot;&gt;22&lt;/font&gt;&lt;font color=&quot;#d4d4d4&quot;&gt;,&amp;nbsp;&lt;/font&gt;&lt;span style=&quot;color: rgb(156 , 220 , 254)&quot;&gt;R&lt;/span&gt;&lt;font color=&quot;#d4d4d4&quot;&gt;)&lt;/font&gt;&lt;/font&gt;&lt;/p&gt;" style="shape=partialRectangle;whiteSpace=wrap;html=1;bottom=1;right=1;left=1;top=0;fillColor=none;routingCenterX=-0.5;" vertex="1" parent="1">
                    <mxGeometry x="1506.5" y="618" width="139" height="40" as="geometry"/>
                </mxCell>
                <mxCell id="228" value="" style="ellipse;whiteSpace=wrap;html=1;aspect=fixed;" vertex="1" parent="1">
                    <mxGeometry x="1920" y="863" width="50" height="50" as="geometry"/>
                </mxCell>
                <mxCell id="230" value="" style="ellipse;whiteSpace=wrap;html=1;aspect=fixed;" vertex="1" parent="1">
                    <mxGeometry x="1920" y="982.5" width="50" height="50" as="geometry"/>
                </mxCell>
                <mxCell id="231" value="" style="endArrow=classic;startArrow=classic;html=1;fontFamily=Times New Roman;fontSize=10;exitX=0.5;exitY=1;exitDx=0;exitDy=0;entryX=0.5;entryY=0;entryDx=0;entryDy=0;" edge="1" parent="1" source="228" target="230">
                    <mxGeometry width="50" height="50" relative="1" as="geometry">
                        <mxPoint x="1934.33" y="973.75" as="sourcePoint"/>
                        <mxPoint x="1934.33" y="1036.25" as="targetPoint"/>
                    </mxGeometry>
                </mxCell>
                <mxCell id="232" value="&lt;p style=&quot;background-color: rgb(30 , 30 , 30) ; line-height: 18px&quot;&gt;&lt;br&gt;&lt;/p&gt;" style="shape=partialRectangle;whiteSpace=wrap;html=1;bottom=1;right=1;left=1;top=0;fillColor=none;routingCenterX=-0.5;" vertex="1" parent="1">
                    <mxGeometry x="1780" y="978" width="121" height="35" as="geometry"/>
                </mxCell>
            </root>
        </mxGraphModel>
    </diagram>
</mxfile>